#!OML:ASF E:\Steps\Project 1\Capture day 1\Session 2\Subject.ASF
:FULLY-SPECIFIED
:DEGREES
80
root 16.5649 19.6579 20.4523 -153.66 -3.04883 178.244
lowerback -30.5991 -1.84943 -7.0964
upperback -1.11108 -0.635261 0.171114
thorax 14.8654 -1.0412 3.71142
lowerneck -6.44023 -3.28548 -0.355104
upperneck 8.53351 -4.84372 3.40239
head 4.05133 -2.3054 0.924254
rclavicle -3.77691e-015 6.95746e-015
rhumerus -34.6415 -20.9191 -76.8975
rradius 27.4824
rwrist 1.59182
rhand -8.71813 -52.4635
rfingers 7.12502
rthumb 17.2177 -81.7207
lclavicle -3.77691e-015 6.95746e-015
lhumerus -27.8384 3.3598 82.884
lradius 18.4802
lwrist -6.46826
lhand -21.1589 -12.3409
lfingers 7.12502
lthumb 5.22093 17.5748
rfemur -22.2032 5.32631 20.3668
rtibia 5.68627
rfoot -19.1357 -4.6064
rtoes -15.9641
lfemur -22.6342 -7.49973 -21.5737
ltibia 7.64258
lfoot -7.32907 -2.00225
ltoes -18.993
81
root 16.5665 19.6589 20.4561 -153.656 -3.10706 178.309
lowerback -30.5804 -1.80737 -6.99988
upperback -1.11407 -0.614659 0.174385
thorax 14.8519 -1.02464 3.67185
lowerneck -6.4136 -3.11014 -0.542637
upperneck 8.24608 -4.60097 3.70741
head 3.95444 -2.17964 1.07474
rclavicle -4.72114e-015 9.34288e-015
rhumerus -34.6538 -20.7883 -76.9612
rradius 27.5971
rwrist 1.16912
rhand -9.33479 -52.1529
rfingers 7.12502
rthumb 16.6242 -81.4609
lclavicle -4.72114e-015 9.34288e-015
lhumerus -27.8169 3.20453 82.9673
lradius 18.6813
lwrist -6.39492
lhand -21.0268 -12.1377
lfingers 7.12502
lthumb 5.34852 17.7748
rfemur -22.2432 5.328 20.4486
rtibia 5.68491
rfoot -19.1013 -4.58138
rtoes -15.6288
lfemur -22.7091 -7.53456 -21.4632
ltibia 7.72995
lfoot -7.30576 -1.99308
ltoes -18.4355
82
root 16.5679 19.6575 20.4593 -153.656 -3.17204 178.25
lowerback -30.6064 -1.82113 -7.02099
upperback -1.08821 -0.613182 0.131108
thorax 14.8927 -1.02493 3.63612
lowerneck -6.59807 -3.37667 -0.248781
upperneck 8.84844 -4.99829 3.37063
head 4.19456 -2.37775 0.881615
rclavicle -8.89561e-015 -2.5842e-014
rhumerus -34.6678 -20.83 -76.9526
rradius 27.6484
rwrist 1.18444
rhand -8.99513 -51.642
rfingers 7.12502
rthumb 16.9511 -80.9223
lclavicle -8.89561e-015 -2.5842e-014
lhumerus -27.7419 3.1648 82.9652
lradius 18.9144
lwrist -6.10597
lhand -20.8819 -11.7755
lfingers 7.12502
lthumb 5.48842 18.1335
rfemur -22.2387 5.36347 20.3719
rtibia 5.63872
rfoot -19.061 -4.69953
rtoes -15.4691
lfemur -22.7464 -7.59018 -21.5106
ltibia 7.75239
lfoot -7.21212 -1.98189
ltoes -18.2977
83
root 16.57 19.6578 20.4645 -153.653 -3.20028 178.201
lowerback -30.6297 -1.83351 -7.05455
upperback -1.07253 -0.608669 0.0928642
thorax 14.9199 -1.02495 3.6137
lowerneck -6.8219 -3.56174 0.0434849
upperneck 9.36071 -5.29397 3.14198
head 4.41245 -2.52112 0.727991
rclavicle 2.38542e-015 1.45113e-014
rhumerus -34.6354 -20.7099 -77.0875
rradius 27.8859
rwrist 1.18915
rhand -8.22496 -53.5084
rfingers 7.12502
rthumb 17.6924 -82.7235
lclavicle 2.38542e-015 1.45113e-014
lhumerus -27.672 3.09322 82.9505
lradius 19.0353
lwrist -5.9301
lhand -20.9138 -11.9107
lfingers 7.12502
lthumb 5.45758 17.999
rfemur -22.2806 5.40992 20.3049
rtibia 5.68264
rfoot -19.0592 -4.89147
rtoes -15.7777
lfemur -22.7821 -7.68652 -21.5283
ltibia 7.73903
lfoot -7.26397 -1.91119
ltoes -19.3561
84
root 16.5729 19.6594 20.4707 -153.671 -3.21873 178.192
lowerback -30.5743 -1.84752 -7.08534
upperback -1.09795 -0.625923 0.108802
thorax 14.8672 -1.03359 3.6415
lowerneck -6.86662 -3.63883 0.279538
upperneck 9.80304 -5.42761 2.8567
head 4.56605 -2.5922 0.577329
rclavicle 1.4064e-014 2.54444e-014
rhumerus -34.6693 -20.7185 -77.0183
rradius 27.7076
rwrist 1.19965
rhand -8.41214 -51.7805
rfingers 7.12502
rthumb 17.5122 -81.0117
lclavicle 1.4064e-014 2.54444e-014
lhumerus -27.729 2.79636 83.0674
lradius 19.153
lwrist -5.82512
lhand -21.2109 -12.0324
lfingers 7.12502
lthumb 5.17068 17.8846
rfemur -22.3011 5.53229 20.2758
rtibia 5.72277
rfoot -19.0913 -5.05082
rtoes -15.8388
lfemur -22.8117 -7.74394 -21.4985
ltibia 7.76002
lfoot -7.32761 -1.89298
ltoes -19.9745
85
root 16.5739 19.6593 20.4729 -153.699 -3.22128 178.174
lowerback -30.55 -1.87856 -7.11602
upperback -1.11735 -0.665843 0.146134
thorax 14.8388 -1.05376 3.683
lowerneck -6.73758 -3.64206 0.294613
upperneck 10.1623 -5.44253 2.66454
head 4.66371 -2.61198 0.508034
rclavicle -2.33572e-015 -3.04141e-014
rhumerus -34.6868 -20.389 -77.0878
rradius 27.8334
rwrist 1.045
rhand -8.41896 -52.0434
rfingers 7.12502
rthumb 17.5057 -81.2752
lclavicle -2.33572e-015 -3.04141e-014
lhumerus -27.8523 2.20192 83.3326
lradius 19.3324
lwrist -5.58666
lhand -21.7069 -11.7769
lfingers 7.12502
lthumb 4.69181 18.1512
rfemur -22.2354 5.31246 20.2999
rtibia 5.65269
rfoot -19.1133 -4.72357
rtoes -15.5607
lfemur -22.7661 -7.80098 -21.5131
ltibia 7.71865
lfoot -7.25542 -1.84645
ltoes -19.8133
86
root 16.5759 19.6598 20.4764 -153.694 -3.20101 178.159
lowerback -30.5604 -1.88743 -7.14365
upperback -1.11479 -0.667814 0.151551
thorax 14.8467 -1.05703 3.70284
lowerneck -6.66668 -3.82889 0.384939
upperneck 11.137 -5.73446 2.39968
head 4.49092 -2.76188 0.331761
rclavicle 9.19379e-015 2.66371e-014
rhumerus -34.6383 -20.2606 -77.1236
rradius 27.8563
rwrist 0.992666
rhand -8.26212 -51.9068
rfingers 7.12502
rthumb 17.6566 -81.1251
lclavicle 9.19379e-015 2.66371e-014
lhumerus -27.8694 1.72261 83.5234
lradius 19.575
lwrist -5.27311
lhand -21.9168 -11.3962
lfingers 7.12502
lthumb 4.48914 18.5362
rfemur -22.2507 5.0057 20.3584
rtibia 5.62545
rfoot -19.0782 -4.4017
rtoes -15.4508
lfemur -22.7747 -7.86672 -21.5174
ltibia 7.71727
lfoot -7.22139 -1.75086
ltoes -19.9686
87
root 16.5806 19.6606 20.4846 -153.671 -3.18674 178.18
lowerback -30.5279 -1.87683 -7.15839
upperback -1.12346 -0.652573 0.155537
thorax 14.8202 -1.05044 3.72192
lowerneck -6.66049 -3.83765 0.402753
upperneck 11.4651 -5.77311 2.34952
head 4.58897 -2.78557 0.306686
rclavicle -1.09332e-015 1.78906e-015
rhumerus -34.5704 -20.2256 -77.1766
rradius 27.8843
rwrist 1.01087
rhand -8.02609 -52.1372
rfingers 7.12502
rthumb 17.8837 -81.3349
lclavicle -1.09332e-015 1.78906e-015
lhumerus -27.8239 1.59287 83.5668
lradius 19.7886
lwrist -5.04749
lhand -21.8127 -11.1573
lfingers 7.12502
lthumb 4.5896 18.7729
rfemur -22.3504 5.05625 20.4024
rtibia 5.68457
rfoot -19.0669 -4.49496
rtoes -15.7766
lfemur -22.879 -7.79531 -21.4759
ltibia 7.80056
lfoot -7.2429 -1.78707
ltoes -20.0303
88
root 16.5834 19.6616 20.4917 -153.692 -3.19934 178.196
lowerback -30.4277 -1.86243 -7.13431
upperback -1.15648 -0.651708 0.145205
thorax 14.7361 -1.04531 3.69948
lowerneck -6.59931 -3.61057 0.261386
upperneck 11.5326 -5.4952 2.61996
head 4.60813 -2.6428 0.428803
rclavicle -7.85199e-015 -1.45113e-014
rhumerus -34.5754 -20.1149 -77.2722
rradius 28.0571
rwrist 0.923598
rhand -7.63893 -52.6213
rfingers 7.12502
rthumb 18.2562 -81.7845
lclavicle -7.85199e-015 -1.45113e-014
lhumerus -27.7972 1.554 83.5494
lradius 19.882
lwrist -4.96652
lhand -21.7515 -11.1353
lfingers 7.12502
lthumb 4.64871 18.7937
rfemur -22.3931 4.9206 20.4589
rtibia 5.73899
rfoot -19.1278 -4.36948
rtoes -16.3674
lfemur -22.9173 -7.80215 -21.438
ltibia 7.85013
lfoot -7.24712 -1.77627
ltoes -19.8716
89
root 16.5861 19.6612 20.5007 -153.635 -3.19166 178.238
lowerback -30.3899 -1.82601 -7.08088
upperback -1.19728 -0.630841 0.134018
thorax 14.6687 -1.03115 3.66696
lowerneck -6.30413 -3.41765 0.0939232
upperneck 11.3303 -5.23951 2.88652
head 4.5048 -2.51582 0.560669
rclavicle 7.30534e-015 6.16232e-015
rhumerus -34.5388 -20.1744 -77.2922
rradius 28.1003
rwrist 0.97948
rhand -7.6514 -52.2995
rfingers 7.12502
rthumb 18.2442 -81.4639
lclavicle 7.30534e-015 6.16232e-015
lhumerus -27.7144 1.44978 83.5622
lradius 19.9258
lwrist -4.99424
lhand -21.7469 -11.3018
lfingers 7.12502
lthumb 4.65315 18.6271
rfemur -22.5866 4.74895 20.5419
rtibia 5.89279
rfoot -19.2061 -4.16401
rtoes -16.7996
lfemur -23.0645 -7.81737 -21.3591
ltibia 7.94592
lfoot -7.22258 -1.73406
ltoes -19.4669
90
root 16.59 19.6574 20.5114 -153.456 -3.08565 178.335
lowerback -30.5307 -1.76379 -7.02593
upperback -1.21507 -0.569182 0.156889
thorax 14.7047 -1.00479 3.68434
lowerneck -6.16709 -3.46964 -0.0123668
upperneck 11.5408 -5.33573 2.9745
head 4.55291 -2.56834 0.598935
rclavicle -1.18774e-014 1.53064e-014
rhumerus -34.389 -20.2826 -77.2881
rradius 27.8964
rwrist 0.915806
rhand -8.7965 -50.63
rfingers 7.12502
rthumb 17.1423 -79.8938
lclavicle -1.18774e-014 1.53064e-014
lhumerus -27.579 1.35867 83.6334
lradius 20.0259
lwrist -5.05293
lhand -21.6457 -11.3854
lfingers 7.12502
lthumb 4.75087 18.5414
rfemur -22.9648 4.766 20.6431
rtibia 6.10955
rfoot -19.2474 -4.02803
rtoes -16.7961
lfemur -23.3598 -7.71471 -21.2407
ltibia 8.06419
lfoot -7.22099 -1.68507
ltoes -19.2144
91
root 16.5924 19.6553 20.5192 -153.342 -2.98413 178.413
lowerback -30.6438 -1.72201 -6.96612
upperback -1.22042 -0.534961 0.179643
thorax 14.7459 -0.98956 3.68872
lowerneck -6.24391 -3.58116 0.0466665
upperneck 11.9862 -5.52083 2.84911
head 4.70039 -2.66597 0.532785
rclavicle -1.11319e-014 -7.7526e-015
rhumerus -34.2633 -20.196 -77.3549
rradius 27.9422
rwrist 0.974669
rhand -8.9206 -51.33
rfingers 7.12502
rthumb 17.0229 -80.6042
lclavicle -1.11319e-014 -7.7526e-015
lhumerus -27.4862 1.42892 83.6368
lradius 20.1624
lwrist -5.17521
lhand -21.4863 -11.2374
lfingers 7.12502
lthumb 4.90482 18.6859
rfemur -23.2198 4.7392 20.7358
rtibia 6.2698
rfoot -19.2348 -3.87854
rtoes -16.3598
lfemur -23.5461 -7.73081 -21.1356
ltibia 8.12463
lfoot -7.31581 -1.52877
ltoes -19.4517
92
root 16.5943 19.6599 20.5238 -153.461 -3.02224 178.401
lowerback -30.4797 -1.74306 -6.96838
upperback -1.20742 -0.565267 0.177404
thorax 14.6914 -0.998192 3.67861
lowerneck -6.38413 -3.59457 0.209101
upperneck 12.5626 -5.57178 2.5515
head 4.88922 -2.70283 0.401742
rclavicle 1.39149e-015 -3.26007e-014
rhumerus -34.2071 -20.0915 -77.4287
rradius 28.0146
rwrist 0.852422
rhand -8.60137 -51.8386
rfingers 7.12502
rthumb 17.3301 -81.086
lclavicle 1.39149e-015 -3.26007e-014
lhumerus -27.4263 1.60692 83.5719
lradius 20.2573
lwrist -5.28663
lhand -21.4833 -10.9099
lfingers 7.12502
lthumb 4.90766 19.0132
rfemur -23.0932 4.78592 20.7198
rtibia 6.27037
rfoot -19.2165 -4.00926
rtoes -16.0026
lfemur -23.4436 -7.88647 -21.107
ltibia 8.12331
lfoot -7.3788 -1.42967
ltoes -19.6851
93
root 16.5966 19.6596 20.5239 -153.53 -3.13142 178.319
lowerback -30.4299 -1.79129 -7.02114
upperback -1.1734 -0.600905 0.145599
thorax 14.7121 -1.01513 3.65923
lowerneck -6.57545 -3.76316 0.452671
upperneck 13.4702 -5.84442 2.02278
head 5.18257 -2.86245 0.165313
rclavicle -8.24956e-015 -8.15017e-015
rhumerus -34.1196 -20.1379 -77.479
rradius 28.0735
rwrist 0.699385
rhand -8.31205 -52.1347
rfingers 7.12502
rthumb 17.6086 -81.3573
lclavicle -8.24956e-015 -8.15017e-015
lhumerus -27.327 1.53403 83.5739
lradius 20.3331
lwrist -5.07826
lhand -21.5918 -10.7605
lfingers 7.12502
lthumb 4.8029 19.165
rfemur -22.9426 4.83136 20.6267
rtibia 6.17486
rfoot -19.2506 -4.22531
rtoes -16.1782
lfemur -23.3897 -7.93552 -21.177
ltibia 8.1544
lfoot -7.36442 -1.54422
ltoes -20.5209
94
root 16.5956 19.653 20.5368 -153.216 -2.65999 178.529
lowerback -30.7368 -1.56325 -6.80194
upperback -1.25093 -0.383485 0.142977
thorax 14.7351 -0.913663 3.61913
lowerneck -6.35838 -3.204 0.0846067
upperneck 12.8095 -5.06073 2.61498
head 4.95908 -2.45724 0.470544
rclavicle 5.76476e-015 6.16232e-015
rhumerus -34.0222 -20.1784 -77.4771
rradius 28.1796
rwrist 0.682062
rhand -7.90185 -52.8346
rfingers 7.12502
rthumb 18.0033 -82.0214
lclavicle 5.76476e-015 6.16232e-015
lhumerus -27.2662 1.33321 83.6636
lradius 20.4138
lwrist -4.86956
lhand -21.6495 -11.0912
lfingers 7.12502
lthumb 4.7472 18.8356
rfemur -23.669 4.677 20.8166
rtibia 6.60195
rfoot -19.3277 -3.45529
rtoes -16.4065
lfemur -23.8123 -7.75727 -21.0366
ltibia 8.24172
lfoot -7.46396 -1.15126
ltoes -22.028
